# Blender 4.0.2
# www.blender.org
mtllib eye.mtl
g Sphere_Mesh
v 0.224936 0.809017 -0.543043
v 0.363954 0.309017 -0.878662
v 0.363954 -0.309017 -0.878662
v 0.224936 -0.809017 -0.543043
v 0.543043 0.809017 -0.224936
v 0.878662 0.309017 0.363954
v 0.878662 -0.309017 0.363954
v 0.543043 -0.809017 -0.224936
v 0.543043 0.809017 0.224936
v 0.878662 0.309017 -0.363954
v 0.878662 -0.309017 -0.363954
v 0.543043 -0.809017 0.224936
v 0.224936 0.809017 0.543043
v 0.363954 0.309017 0.878662
v 0.363954 -0.309017 0.878662
v 0.224936 -0.809017 0.543043
v -0.224936 0.809017 0.543043
v -0.363954 0.309017 0.878662
v -0.363954 -0.309017 0.878662
v -0.224936 -0.809017 0.543043
v 0.000000 -1.000000 -0.000000
v 0.000000 1.000000 -0.000000
v -0.543043 0.809017 0.224936
v -0.878662 0.309017 0.363954
v -0.878662 -0.309017 0.363954
v -0.543043 -0.809017 0.224936
v -0.543043 0.809017 -0.224936
v -0.878662 0.309017 -0.363954
v -0.878662 -0.309017 -0.363954
v -0.543043 -0.809017 -0.224936
v -0.224936 0.809017 -0.543043
v -0.363954 0.309017 -0.878662
v -0.363954 -0.309017 -0.878662
v -0.224936 -0.809017 -0.543043
v 0.363954 0.000000 0.878662
v 0.968276 0.437595 0.540392
v 0.968276 0.437595 -0.540392
v 0.363954 0.000000 -0.878662
v 0.941002 -0.410321 0.481901
v 0.941002 -0.410321 -0.481901
v 0.981768 0.000000 0.292887
v 0.981768 0.000000 -0.292887
v 0.858385 0.298716 0.000000
v 0.858385 -0.298716 0.000000
v 0.700714 0.553866 0.000000
v 0.624663 -0.589327 0.258911
v 0.515107 0.543343 -0.494084
v 0.294445 0.404509 -0.710852
v 0.515107 0.543343 0.494084
v 0.294445 0.404509 0.710852
v 0.294445 -0.404509 0.710852
v 0.294445 -0.404509 -0.710852
v 0.624663 -0.589327 -0.258911
v 0.645670 -0.588148 0.000000
v 0.363954 0.000000 0.878662
v 0.363954 0.000000 -0.878662
vn -0.0000 -1.0000 -0.0000
vn -0.1183 -0.9511 -0.2855
vn 0.1183 -0.9511 -0.2855
vn -0.1183 0.9511 -0.2855
vn -0.0000 1.0000 -0.0000
vn 0.1183 0.9511 -0.2855
vn -0.0000 -0.5573 -0.8303
vn -0.0000 0.5573 -0.8303
vn 0.5871 -0.5573 -0.5871
vn 0.5871 0.5573 -0.5871
vn 0.2855 -0.9511 -0.1183
vn 0.7071 -0.0000 0.7071
vn 0.2855 0.9511 -0.1183
vn 0.8303 -0.5573 -0.0000
vn 0.8303 0.5573 -0.0000
vn 0.2855 -0.9511 0.1183
vn 0.7071 -0.0000 -0.7071
vn 0.2855 0.9511 0.1183
vn 0.5871 -0.5573 0.5871
vn 0.5871 0.5573 0.5871
vn 0.1183 -0.9511 0.2855
vn 0.1183 0.9511 0.2855
vn -0.0000 -0.5573 0.8303
vn -0.0000 0.5573 0.8303
vn -0.1183 -0.9511 0.2855
vn -0.1183 0.9511 0.2855
vn -0.5871 -0.5573 0.5871
vn -0.5871 0.5573 0.5871
vn -0.2855 -0.9511 0.1183
vn -0.2855 0.9511 0.1183
vn -0.8303 -0.5573 -0.0000
vn -0.8303 0.5573 -0.0000
vn -0.2855 -0.9511 -0.1183
vn -0.2855 0.9511 -0.1183
vn -0.5871 -0.5573 -0.5871
vn -0.5871 0.5573 -0.5871
vn 0.7618 -0.6427 -0.0814
vn 0.7172 -0.6839 0.1341
vn 0.7618 -0.6427 0.0814
vn 0.7172 -0.6839 -0.1341
vn 0.6470 -0.7340 -0.2063
vn 0.6470 -0.7340 0.2063
vn 0.7900 0.6046 0.1017
vn 0.7477 0.6448 -0.1587
vn 0.7900 0.6046 -0.1017
vn 0.6689 0.7007 0.2482
vn 0.7477 0.6448 0.1587
vn 0.6689 0.7007 -0.2482
vn 0.8513 0.5247 -0.0000
vn 0.7918 0.5419 -0.2818
vn 0.8076 0.4991 -0.3140
vn 0.7629 -0.5152 0.3906
vn 0.8624 -0.5062 -0.0000
vn 0.8190 -0.4525 0.3527
vn 0.7629 -0.5152 -0.3906
vn 0.8058 -0.5922 -0.0000
vn 0.8190 -0.4525 -0.3527
vn 0.6082 0.3389 0.7178
vn 0.6095 0.3380 0.7171
vn 0.6549 0.3067 0.6907
vn 0.6368 -0.4026 0.6575
vn 0.6345 -0.3867 0.6692
vn 0.6095 0.3380 -0.7171
vn 0.6082 0.3389 -0.7178
vn 0.6549 0.3067 -0.6907
vn -0.0000 -0.0000 -1.0000
vn -0.7071 -0.0000 -0.7071
vn -1.0000 -0.0000 -0.0000
vn -0.7071 -0.0000 0.7071
vn -0.0000 -0.0000 1.0000
vn 0.7918 0.5419 0.2818
vn 0.8560 0.4962 0.1454
vn 0.6368 -0.4026 -0.6575
vn 0.6345 -0.3867 -0.6692
vn 0.8560 0.4962 -0.1454
vn 0.4991 0.4038 0.7667
vn 0.4991 0.4038 -0.7667
vn 0.8076 0.4991 0.3140
vt 0.517473 0.251812
vt 0.419993 0.121568
vt 0.325274 0.195375
vt 0.419992 0.121568
vt 0.325274 0.195375
vt 0.389873 0.016304
vt 0.228890 0.037837
vt 0.389872 0.016304
vt 0.284402 0.159678
vt 0.126141 0.124602
vt 0.194907 0.073865
vt 0.158909 0.237551
vt 0.086923 0.012798
vt 0.317462 0.212953
vt 0.044754 0.122434
vt 0.012826 0.237551
vt 0.086923 0.012798
vt 0.228890 0.037837
vt 0.495303 0.100375
vt 0.491488 0.014662
vt 0.581162 0.020417
vt 0.564163 0.106602
vt 0.495303 0.100375
vt 0.721279 0.082255
vt 0.898150 0.051603
vt 0.863643 0.082255
vt 0.686771 0.051602
vt 0.615532 0.195117
vt 0.969389 0.195117
vt 0.860762 0.343542
vt 0.695330 0.366806
vt 0.718398 0.343542
vt 0.968357 0.232441
vt 0.883830 0.366806
vt 0.610803 0.232441
vt 0.480765 0.784239
vt 0.271907 0.905148
vt 0.480765 0.892575
vt 0.588710 0.438597
vt 0.480765 0.572729
vt 0.565556 0.676991
vt 0.372820 0.438597
vt 0.480765 0.438466
vt 0.395974 0.676991
vt 0.689623 0.905148
vt 0.865426 0.679626
vt 0.828481 0.495333
vt 0.096104 0.679626
vt 0.053692 0.457442
vt 0.035048 0.364038
vt 0.223802 0.408127
vt 0.051867 0.270588
vt 0.222745 0.310761
vt 0.322081 0.397787
vt 0.326713 0.321898
vt 0.410350 0.399393
vt 0.035048 0.364038
vt 0.133049 0.495333
vt 0.824557 0.860822
vt 0.136973 0.860822
vt 0.416560 0.323303
s 1
g off
g Sphere_Material.001
usemtl Material.001
f 21/1/1 34/2/2 4/3/3
f 31/4/4 22/1/5 1/5/6
f 33/6/7 4/3/7 34/2/7
f 31/4/8 2/7/8 32/8/8
f 3/9/9 8/10/9 4/11/9
f 1/11/10 10/12/10 2/9/10
f 21/13/1 4/11/3 8/10/11
f 6/12/12 14/9/12 55/14/12
f 1/11/6 22/13/5 5/10/13
f 11/12/14 12/15/14 8/10/14
f 5/10/15 6/16/15 10/12/15
f 21/17/1 8/10/11 12/15/16
f 3/9/17 38/14/17 11/12/17
f 5/10/13 22/17/5 9/15/18
f 7/12/19 16/11/19 12/10/19
f 6/12/20 13/11/20 14/9/20
f 21/13/1 12/10/16 16/11/21
f 2/9/17 10/12/17 38/14/17
f 9/10/18 22/13/5 13/11/22
f 15/18/23 20/2/23 16/3/23
f 13/3/24 18/6/24 14/18/24
f 21/1/1 16/3/21 20/2/25
f 13/3/22 22/1/5 17/2/26
f 19/6/27 26/19/27 20/2/27
f 18/6/28 23/19/28 24/20/28
f 21/1/1 20/2/25 26/19/29
f 17/2/26 22/1/5 23/19/30
f 25/21/31 30/19/31 26/22/31
f 24/21/32 27/23/32 28/20/32
f 21/1/1 26/22/29 30/19/33
f 23/22/30 22/1/5 27/23/34
f 29/20/35 34/2/35 30/19/35
f 27/23/36 32/8/36 28/20/36
f 21/1/1 30/19/33 34/2/2
f 27/23/34 22/1/5 31/4/4
f 10/24/37 36/25/38 6/26/39
f 37/27/40 10/24/37 38/28/41
f 15/9/12 7/12/12 55/14/12
f 6/26/39 36/25/38 55/29/42
f 7/30/43 40/31/44 11/32/45
f 7/30/43 55/33/46 39/34/47
f 11/32/45 40/31/44 38/35/48
s 2
f 43/36/49 47/37/50 45/38/51
f 46/39/52 44/40/53 41/41/54
f 53/42/55 44/40/53 54/43/56
f 42/44/57 41/41/54 44/40/53
f 49/45/58 35/46/59 41/41/60
f 51/47/61 41/41/54 35/46/62
f 56/48/63 47/37/64 42/44/65
s 1
f 2/49/66 38/50/66 32/51/66
f 3/52/66 33/53/66 38/50/66
f 38/50/66 33/53/66 32/51/66
f 28/54/67 33/53/67 29/55/67
f 24/55/68 29/56/68 25/54/68
f 18/53/69 25/54/69 19/51/69
f 14/52/70 18/53/70 55/57/70
f 15/49/70 55/57/70 19/51/70
f 19/51/70 55/57/70 18/53/70
s 2
f 43/36/49 49/45/71 41/41/72
f 42/44/57 52/58/73 56/48/74
s 1
f 33/6/7 3/18/7 4/3/7
f 31/4/8 1/5/8 2/7/8
f 3/9/9 11/12/9 8/10/9
f 1/11/10 5/10/10 10/12/10
f 11/12/14 7/16/14 12/15/14
f 5/10/15 9/15/15 6/16/15
f 7/12/19 15/9/19 16/11/19
f 6/12/20 9/10/20 13/11/20
f 15/18/23 19/6/23 20/2/23
f 13/3/24 17/2/24 18/6/24
f 19/6/27 25/20/27 26/19/27
f 18/6/28 17/2/28 23/19/28
f 25/21/31 29/20/31 30/19/31
f 24/21/32 23/22/32 27/23/32
f 29/20/35 33/6/35 34/2/35
f 27/23/36 31/4/36 32/8/36
f 10/24/37 37/27/40 36/25/38
f 7/30/43 39/34/47 40/31/44
s 2
f 43/36/49 42/44/75 47/37/50
f 46/39/52 54/43/56 44/40/53
f 53/42/55 42/44/57 44/40/53
f 42/44/75 43/36/49 41/41/72
f 49/45/58 50/59/76 35/46/59
f 51/47/61 46/39/52 41/41/54
f 56/48/63 48/60/77 47/37/64
s 1
f 28/54/67 32/51/67 33/53/67
f 24/55/68 28/61/68 29/56/68
f 18/53/69 24/55/69 25/54/69
s 2
f 43/36/49 45/38/78 49/45/71
f 42/44/57 53/42/55 52/58/73
