# Blender 4.0.2
# www.blender.org
mtllib stairs-down.mtl
o Cube
v 2.000000 -1.000000 -6.000000
v 2.000000 -2.000000 -4.000000
v 2.000000 -2.000000 -12.000000
v 0.000000 -1.000000 -6.000000
v 0.000000 -2.000000 -4.000000
v 0.000000 -2.000000 -12.000000
v 2.000000 -1.500000 -7.000000
v 0.000000 -1.500000 -7.000000
v 0.000000 -1.000000 -6.250000
v 2.000000 -1.000000 -6.250000
v 2.000000 -1.875000 -8.000000
v 0.000000 -1.875000 -8.000000
v 2.000000 -1.750000 -7.500000
v 0.000000 -1.750000 -7.500000
v 2.000000 -1.625000 -7.500000
v 0.000000 -1.625000 -7.500000
v 2.000000 -1.750000 -7.750000
v 2.000000 -1.875000 -7.750000
v 0.000000 -1.750000 -7.750000
v 0.000000 -1.875000 -7.750000
v 0.000000 -1.500000 -7.250000
v 0.000000 -1.625000 -7.250000
v 2.000000 -1.500000 -7.250000
v 2.000000 -1.625000 -7.250000
v 2.000000 -1.250000 -6.500000
v 0.000000 -1.250000 -6.500000
v 0.000000 -1.250000 -6.750000
v 2.000000 -1.250000 -6.750000
v 2.000000 -1.375000 -7.000000
v 0.000000 -1.375000 -7.000000
v 0.000000 -1.375000 -6.750000
v 2.000000 -1.375000 -6.750000
v 2.000000 -1.125000 -6.500000
v 0.000000 -1.125000 -6.500000
v 2.000000 -1.125000 -6.250000
v 0.000000 -1.125000 -6.250000
v 2.000000 0.000000 -4.000000
v 0.000000 8.000000 -12.000000
v 2.000000 -1.000000 -6.000000
v 0.000000 0.000000 -4.000000
v 0.000000 8.000000 -4.000000
v 0.000000 -1.000000 -6.000000
v 2.000000 -0.500000 -5.000000
v 0.000000 -0.500000 -5.000000
v 0.000000 0.000000 -4.250000
v 2.000000 0.000000 -4.250000
v 2.000000 -0.875000 -6.000000
v 0.000000 -0.875000 -6.000000
v 2.000000 -0.750000 -5.500000
v 0.000000 -0.750000 -5.500000
v 2.000000 -0.625000 -5.500000
v 0.000000 -0.625000 -5.500000
v 2.000000 -0.750000 -5.750000
v 2.000000 -0.875000 -5.750000
v 0.000000 -0.750000 -5.750000
v 0.000000 -0.875000 -5.750000
v 0.000000 -0.500000 -5.250000
v 0.000000 -0.625000 -5.250000
v 2.000000 -0.500000 -5.250000
v 2.000000 -0.625000 -5.250000
v 2.000000 -0.250000 -4.500000
v 0.000000 -0.250000 -4.500000
v 0.000000 -0.250000 -4.750000
v 2.000000 -0.250000 -4.750000
v 2.000000 -0.375000 -5.000000
v 0.000000 -0.375000 -5.000000
v 0.000000 -0.375000 -4.750000
v 2.000000 -0.375000 -4.750000
v 2.000000 -0.125000 -4.500000
v 0.000000 -0.125000 -4.500000
v 2.000000 -0.125000 -4.250000
v 0.000000 -0.125000 -4.250000
v 2.000000 8.000000 -4.000000
v 2.000000 8.000000 -12.000000
v 0.000000 -2.000000 -8.000000
v 2.000000 -2.000000 -8.000000
vn -0.0000 1.0000 -0.0000
vn -0.0000 -0.0000 -1.0000
vn -1.0000 -0.0000 -0.0000
vn 1.0000 -0.0000 -0.0000
vt 1.727023 0.125014
vt 1.727023 0.000085
vt 0.727592 0.000085
vt 0.727592 0.125014
vt 1.372474 0.624729
vt 2.371905 0.624729
vt 2.371905 0.499800
vt 1.372474 0.499800
vt -2.273862 -0.374909
vt -2.273862 -0.249979
vt -1.274432 -0.249979
vt -1.274432 -0.374909
vt 1.000427 0.125014
vt 1.000427 0.249942
vt 1.999858 0.249942
vt 1.999858 0.125014
vt -1.751028 0.249736
vt -1.751028 0.374664
vt -0.751597 0.374664
vt -0.751597 0.249736
vt -2.001028 0.499592
vt -1.001597 0.499592
vt -1.001597 0.374664
vt -2.001028 0.374664
vt -2.001028 -0.249979
vt -2.001028 -0.125050
vt -1.001597 -0.125050
vt -1.001597 -0.249979
vt 1.999858 0.999516
vt 1.999858 0.874587
vt 1.000427 0.874587
vt 1.000427 0.999516
vt -0.629550 -0.000121
vt -1.628981 -0.000121
vt -1.628981 0.124807
vt -0.629550 0.124807
vt 1.000427 0.374871
vt 1.000427 0.499800
vt 1.999858 0.499800
vt 1.999858 0.374871
vt -1.274432 -0.499838
vt -2.273862 -0.499838
vt 1.119346 0.749658
vt 1.119346 0.624729
vt 0.119916 0.624729
vt 0.119916 0.749658
vt 1.250427 0.874587
vt 2.249858 0.874587
vt 2.249858 0.749658
vt 1.250427 0.749658
vt -1.237227 -0.125050
vt -2.236658 -0.125050
vt -2.236658 -0.000121
vt -1.237227 -0.000121
vt 1.764228 0.374871
vt 1.764228 0.249942
vt 0.764797 0.249942
vt 0.764797 0.374871
vt -1.882109 0.124807
vt -2.881539 0.124807
vt -2.881539 0.249736
vt -1.882109 0.249736
vt 2.728731 0.125014
vt 2.728731 0.000085
vt 1.729300 0.000085
vt 1.729300 0.125014
vt 2.374182 0.624729
vt 3.373612 0.624729
vt 3.373612 0.499800
vt 2.374182 0.499800
vt -1.272154 -0.374909
vt -1.272154 -0.249979
vt -0.272724 -0.249979
vt -0.272724 -0.374909
vt 2.002135 0.125014
vt 2.002135 0.249942
vt 3.001565 0.249942
vt 3.001565 0.125014
vt -0.749320 0.249736
vt -0.749320 0.374664
vt 0.250111 0.374664
vt 0.250111 0.249736
vt -0.999320 0.499592
vt 0.000111 0.499592
vt 0.000111 0.374664
vt -0.999320 0.374664
vt -0.999320 -0.249979
vt -0.999320 -0.125050
vt 0.000111 -0.125050
vt 0.000111 -0.249979
vt 3.001565 0.999516
vt 3.001565 0.874587
vt 2.002135 0.874587
vt 2.002135 0.999516
vt 0.372158 -0.000121
vt -0.627273 -0.000121
vt -0.627273 0.124807
vt 0.372158 0.124807
vt 2.002135 0.374871
vt 2.002135 0.499800
vt 3.001565 0.499800
vt 3.001565 0.374871
vt -0.272724 -0.499838
vt -1.272154 -0.499838
vt 2.121054 0.749658
vt 2.121054 0.624729
vt 1.121624 0.624729
vt 1.121624 0.749658
vt 2.252135 0.874587
vt 3.251565 0.874587
vt 3.251565 0.749658
vt 2.252135 0.749658
vt -0.235519 -0.125050
vt -1.234950 -0.125050
vt -1.234950 -0.000121
vt -0.235519 -0.000121
vt 2.765936 0.374871
vt 2.765936 0.249942
vt 1.766505 0.249942
vt 1.766505 0.374871
vt -0.880401 0.124807
vt -1.879831 0.124807
vt -1.879831 0.249736
vt -0.880401 0.249736
vt 0.000369 -5.249662
vt 0.000369 0.996779
vt 3.998091 0.996779
vt 3.998091 -5.249662
vt 3.999850 0.999904
vt 0.002128 0.999904
vt 0.002128 -5.246537
vt 3.999850 -5.246537
s 0
usemtl Material
f 18/1/1 11/2/1 12/3/1 20/4/1
f 31/5/1 32/6/1 29/7/1 30/8/1
f 20/9/2 19/10/2 17/11/2 18/12/2
f 19/13/1 14/14/1 13/15/1 17/16/1
f 26/17/2 34/18/2 33/19/2 25/20/2
f 9/21/2 10/22/2 35/23/2 36/24/2
f 14/25/2 16/26/2 15/27/2 13/28/2
f 1/29/1 10/30/1 9/31/1 4/32/1
f 7/33/2 8/34/2 30/35/2 29/36/2
f 21/37/1 8/38/1 7/39/1 23/40/1
f 76/41/2 75/42/2 12/9/2 11/12/2
f 25/43/1 28/44/1 27/45/1 26/46/1
f 36/47/1 35/48/1 33/49/1 34/50/1
f 24/51/2 22/52/2 21/53/2 23/54/2
f 24/55/1 15/56/1 16/57/1 22/58/1
f 32/59/2 31/60/2 27/61/2 28/62/2
f 54/63/1 47/64/1 48/65/1 56/66/1
f 67/67/1 68/68/1 65/69/1 66/70/1
f 56/71/2 55/72/2 53/73/2 54/74/2
f 55/75/1 50/76/1 49/77/1 53/78/1
f 62/79/2 70/80/2 69/81/2 61/82/2
f 45/83/2 46/84/2 71/85/2 72/86/2
f 50/87/2 52/88/2 51/89/2 49/90/2
f 37/91/1 46/92/1 45/93/1 40/94/1
f 43/95/2 44/96/2 66/97/2 65/98/2
f 57/99/1 44/100/1 43/101/1 59/102/1
f 39/103/2 42/104/2 48/71/2 47/74/2
f 61/105/1 64/106/1 63/107/1 62/108/1
f 72/109/1 71/110/1 69/111/1 70/112/1
f 60/113/2 58/114/2 57/115/2 59/116/2
f 60/117/1 51/118/1 52/119/1 58/120/1
f 68/121/2 67/122/2 63/123/2 64/124/2
f 2/125/3 73/126/3 74/127/3 3/128/3
f 5/129/4 6/130/4 38/131/4 41/132/4
